<svg width="27" height="26" viewBox="0 0 27 26" fill="none" xmlns="http://www.w3.org/2000/svg">
<g clip-path="url(#clip0_2613_6054)">
<path d="M22.9784 8.48096C22.8718 8.54768 20.3348 9.95569 20.3348 13.0776C20.4543 16.6379 23.5364 17.8865 23.5892 17.8865C23.5364 17.9532 23.1239 19.5873 21.9022 21.3003C20.9326 22.7759 19.8565 24.2637 18.2223 24.2637C16.6679 24.2637 16.1099 23.2802 14.3163 23.2802C12.3901 23.2802 11.8451 24.2637 10.3704 24.2637C8.73622 24.2637 7.58036 22.6962 6.55792 21.2345C5.22963 19.3213 4.10062 16.319 4.06076 13.4363C4.0339 11.9087 4.32677 10.4071 5.0702 9.13168C6.11949 7.35109 7.99279 6.14236 10.0385 6.10251C11.606 6.04965 13.001 7.17866 13.9576 7.17866C14.8743 7.17866 16.5882 6.10251 18.5273 6.10251C19.3643 6.10337 21.5963 6.35551 22.9784 8.48096ZM13.825 5.79751C13.546 4.4025 14.3163 3.00748 15.0337 2.11762C15.9504 1.04147 17.3983 0.311035 18.6469 0.311035C18.7266 1.70605 18.2214 3.0742 17.3186 4.07064C16.5084 5.14679 15.1134 5.95694 13.825 5.79751Z" fill="white"/>
</g>
<defs>
<clipPath id="clip0_2613_6054">
<rect width="25.994" height="25.994" fill="white" transform="translate(0.82666 0.00292969)"/>
</clipPath>
</defs>
</svg>
